<svg xmlns="http://www.w3.org/2000/svg" xmlns:xlink="http://www.w3.org/1999/xlink" width="1080" zoomAndPan="magnify" viewBox="0 0 810 809.999993" height="1080" preserveAspectRatio="xMidYMid meet" version="1.0"><defs><g/><clipPath id="946f5e61e7"><path d="M 345 208.027344 L 436 208.027344 L 436 308 L 345 308 Z M 345 208.027344 " clip-rule="nonzero"/></clipPath><clipPath id="ac4965185d"><path d="M 302.535156 269 L 487 269 L 487 427.777344 L 302.535156 427.777344 Z M 302.535156 269 " clip-rule="nonzero"/></clipPath><clipPath id="689cbf9fa5"><path d="M 323 269 L 507.285156 269 L 507.285156 427.777344 L 323 427.777344 Z M 323 269 " clip-rule="nonzero"/></clipPath><clipPath id="41e1d983bf"><path d="M 368 208.027344 L 459 208.027344 L 459 308 L 368 308 Z M 368 208.027344 " clip-rule="nonzero"/></clipPath></defs><rect x="-81" width="972" fill="#ffffff" y="-80.999999" height="971.999992" fill-opacity="1"/><rect x="-81" width="972" fill="#ffffff" y="-80.999999" height="971.999992" fill-opacity="1"/><g clip-path="url(#946f5e61e7)"><path fill="#100f0f" d="M 430.804688 307.140625 C 427.953125 307.140625 425.636719 304.820312 425.636719 301.964844 L 425.636719 253.171875 C 425.636719 233.96875 410.027344 218.34375 390.855469 218.34375 C 371.671875 218.34375 356.066406 233.96875 356.066406 253.171875 L 356.066406 301.964844 C 356.066406 304.820312 353.75 307.140625 350.90625 307.140625 C 348.039062 307.140625 345.734375 304.820312 345.734375 301.964844 L 345.734375 253.171875 C 345.734375 228.265625 365.972656 208.003906 390.855469 208.003906 C 415.738281 208.003906 435.976562 228.265625 435.976562 253.171875 L 435.976562 301.964844 C 435.976562 304.820312 433.671875 307.140625 430.804688 307.140625 " fill-opacity="1" fill-rule="nonzero"/></g><g clip-path="url(#ac4965185d)"><path fill="#f58013" d="M 486.492188 415.234375 C 486.492188 422.148438 480.835938 427.796875 473.933594 427.796875 L 315.445312 427.796875 C 308.542969 427.796875 302.898438 422.148438 302.898438 415.234375 L 303.039062 281.984375 C 303.039062 275.070312 308.695312 269.410156 315.597656 269.410156 L 470.9375 269.410156 C 477.84375 269.410156 483.496094 275.070312 483.496094 281.984375 L 486.492188 415.234375 " fill-opacity="1" fill-rule="nonzero"/></g><g clip-path="url(#689cbf9fa5)"><path fill="#f9af23" d="M 507.03125 415.234375 C 507.03125 422.148438 501.386719 427.796875 494.484375 427.796875 L 336 427.796875 C 329.09375 427.796875 323.4375 422.148438 323.4375 415.234375 L 323.589844 281.984375 C 323.589844 275.070312 329.234375 269.410156 336.136719 269.410156 L 491.488281 269.410156 C 498.394531 269.410156 504.050781 275.070312 504.050781 281.984375 L 507.03125 415.234375 " fill-opacity="1" fill-rule="nonzero"/></g><path fill="#f58013" d="M 385.136719 301.964844 C 385.136719 308.59375 379.761719 313.976562 373.136719 313.976562 C 366.503906 313.976562 361.128906 308.59375 361.128906 301.964844 C 361.128906 295.320312 366.503906 289.953125 373.136719 289.953125 C 379.761719 289.953125 385.136719 295.320312 385.136719 301.964844 " fill-opacity="1" fill-rule="nonzero"/><path fill="#f58013" d="M 466.5 301.964844 C 466.5 308.59375 461.125 313.976562 454.5 313.976562 C 447.867188 313.976562 442.492188 308.59375 442.492188 301.964844 C 442.492188 295.320312 447.867188 289.953125 454.5 289.953125 C 461.125 289.953125 466.5 295.320312 466.5 301.964844 " fill-opacity="1" fill-rule="nonzero"/><g clip-path="url(#41e1d983bf)"><path fill="#141515" d="M 453.769531 307.140625 C 450.914062 307.140625 448.597656 304.820312 448.597656 301.964844 L 448.597656 253.171875 C 448.597656 233.96875 432.992188 218.34375 413.820312 218.34375 C 394.636719 218.34375 379.027344 233.96875 379.027344 253.171875 L 379.027344 301.964844 C 379.027344 304.820312 376.714844 307.140625 373.859375 307.140625 C 371.003906 307.140625 368.6875 304.820312 368.6875 301.964844 L 368.6875 253.171875 C 368.6875 228.265625 388.925781 208.003906 413.820312 208.003906 C 438.699219 208.003906 458.941406 228.265625 458.941406 253.171875 L 458.941406 301.964844 C 458.941406 304.820312 456.625 307.140625 453.769531 307.140625 " fill-opacity="1" fill-rule="nonzero"/></g><path fill="#ffffff" d="M 464.046875 342.59375 L 462.0625 342.496094 C 458.765625 342.34375 455.988281 344.621094 455.847656 347.597656 L 455.0625 364.363281 L 455.050781 364.339844 L 452.863281 360.460938 L 433.109375 325.4375 C 431.730469 322.988281 428.628906 322.128906 426.183594 323.507812 L 424.710938 324.335938 C 422.265625 325.730469 421.402344 328.824219 422.78125 331.269531 L 432.238281 348.050781 C 431.054688 347.789062 429.78125 347.941406 428.652344 348.578125 L 427.164062 349.40625 C 424.730469 350.796875 423.859375 353.894531 425.246094 356.339844 C 423.859375 353.894531 420.765625 353.03125 418.320312 354.410156 L 416.835938 355.25 C 414.402344 356.632812 413.527344 359.738281 414.90625 362.183594 C 413.527344 359.738281 410.4375 358.875 407.980469 360.253906 L 406.515625 361.085938 C 404.070312 362.464844 403.199219 365.570312 404.578125 368.019531 L 413.011719 382.972656 C 413.011719 382.972656 424.148438 403.363281 428.824219 408.992188 C 433.152344 414.242188 434.089844 412.929688 435.996094 414.824219 C 438.808594 417.628906 441.5 419.96875 443.945312 418.589844 L 467.191406 405.457031 C 469.644531 404.074219 469.550781 400.378906 468.09375 396.6875 C 467.566406 395.351562 466.855469 391.601562 467.210938 390.984375 C 467.210938 390.984375 467.902344 388.496094 467.867188 388.050781 L 469.742188 348.253906 C 469.882812 345.277344 467.332031 342.742188 464.046875 342.59375 " fill-opacity="1" fill-rule="nonzero"/><g fill="#141515" fill-opacity="1"><g transform="translate(317.290065, 498.303955)"><g><path d="M 25.9375 -40.21875 L 25.9375 -32.171875 L 12.09375 -32.171875 L 12.09375 -24.1875 L 25.34375 -24.1875 L 25.34375 -16.140625 L 12.09375 -16.140625 L 12.09375 -8.046875 L 25.9375 -8.046875 L 25.9375 0 L 2.921875 0 L 2.921875 -40.21875 Z M 25.9375 -40.21875 "/></g></g></g><g fill="#141515" fill-opacity="1"><g transform="translate(345.565084, 498.303955)"><g><path d="M 2.921875 -17.84375 L 18.625 -17.84375 L 18.625 -10.390625 L 2.921875 -10.390625 Z M 2.921875 -17.84375 "/></g></g></g><g fill="#141515" fill-opacity="1"><g transform="translate(367.112602, 498.303955)"><g><path d="M 24.328125 -8.28125 C 25.722656 -8.28125 27.078125 -8.492188 28.390625 -8.921875 C 29.710938 -9.347656 30.679688 -9.753906 31.296875 -10.140625 L 32.21875 -10.78125 L 36.125 -2.96875 C 35.988281 -2.875 35.804688 -2.742188 35.578125 -2.578125 C 35.359375 -2.421875 34.832031 -2.125 34 -1.6875 C 33.175781 -1.25 32.289062 -0.863281 31.34375 -0.53125 C 30.40625 -0.207031 29.171875 0.0820312 27.640625 0.34375 C 26.109375 0.601562 24.53125 0.734375 22.90625 0.734375 C 19.175781 0.734375 15.632812 -0.179688 12.28125 -2.015625 C 8.9375 -3.859375 6.238281 -6.390625 4.1875 -9.609375 C 2.144531 -12.828125 1.125 -16.300781 1.125 -20.03125 C 1.125 -22.863281 1.722656 -25.578125 2.921875 -28.171875 C 4.128906 -30.773438 5.726562 -33.003906 7.71875 -34.859375 C 9.71875 -36.710938 12.050781 -38.191406 14.71875 -39.296875 C 17.382812 -40.398438 20.113281 -40.953125 22.90625 -40.953125 C 25.507812 -40.953125 27.90625 -40.640625 30.09375 -40.015625 C 32.289062 -39.398438 33.847656 -38.785156 34.765625 -38.171875 L 36.125 -37.25 L 32.21875 -29.4375 C 31.988281 -29.632812 31.644531 -29.867188 31.1875 -30.140625 C 30.738281 -30.421875 29.832031 -30.789062 28.46875 -31.25 C 27.101562 -31.707031 25.722656 -31.9375 24.328125 -31.9375 C 22.117188 -31.9375 20.132812 -31.578125 18.375 -30.859375 C 16.625 -30.140625 15.234375 -29.195312 14.203125 -28.03125 C 13.179688 -26.863281 12.398438 -25.601562 11.859375 -24.25 C 11.328125 -22.90625 11.0625 -21.535156 11.0625 -20.140625 C 11.0625 -17.078125 12.207031 -14.332031 14.5 -11.90625 C 16.789062 -9.488281 20.066406 -8.28125 24.328125 -8.28125 Z M 24.328125 -8.28125 "/></g></g></g><g fill="#141515" fill-opacity="1"><g transform="translate(403.821379, 498.303955)"><g><path d="M 1.125 -20.140625 C 1.125 -25.953125 3.101562 -30.875 7.0625 -34.90625 C 11.03125 -38.9375 15.8125 -40.953125 21.40625 -40.953125 C 27.019531 -40.953125 31.789062 -38.941406 35.71875 -34.921875 C 39.65625 -30.910156 41.625 -25.984375 41.625 -20.140625 C 41.625 -14.253906 39.691406 -9.300781 35.828125 -5.28125 C 31.960938 -1.269531 27.15625 0.734375 21.40625 0.734375 C 15.519531 0.734375 10.664062 -1.253906 6.84375 -5.234375 C 3.03125 -9.222656 1.125 -14.191406 1.125 -20.140625 Z M 11.015625 -20.140625 C 11.015625 -18.023438 11.335938 -16.097656 11.984375 -14.359375 C 12.640625 -12.617188 13.78125 -11.144531 15.40625 -9.9375 C 17.03125 -8.738281 19.03125 -8.140625 21.40625 -8.140625 C 24.8125 -8.140625 27.382812 -9.304688 29.125 -11.640625 C 30.863281 -13.984375 31.734375 -16.816406 31.734375 -20.140625 C 31.734375 -23.421875 30.847656 -26.238281 29.078125 -28.59375 C 27.304688 -30.945312 24.75 -32.125 21.40625 -32.125 C 18.082031 -32.125 15.519531 -30.945312 13.71875 -28.59375 C 11.914062 -26.238281 11.015625 -23.421875 11.015625 -20.140625 Z M 11.015625 -20.140625 "/></g></g></g><g fill="#141515" fill-opacity="1"><g transform="translate(446.575165, 498.303955)"><g><path d="M 36.171875 0 L 34.265625 -23.84375 L 34.03125 -23.84375 L 25.78125 -0.25 L 20.328125 -0.25 L 12.09375 -23.84375 L 11.84375 -23.84375 L 9.9375 0 L 0.78125 0 L 4.390625 -40.21875 L 14.140625 -40.21875 L 23.0625 -17.015625 L 31.984375 -40.21875 L 41.734375 -40.21875 L 45.34375 0 Z M 36.171875 0 "/></g></g></g></svg>